<svg width="30" height="31" viewBox="0 0 30 31" fill="none" xmlns="http://www.w3.org/2000/svg">
<path d="M25.6055 0H4.39453C1.97159 0 0 1.9739 0 4.39968V25.6355C0 28.0613 1.97159 30.0352 4.39453 30.0352H25.6055C28.0284 30.0352 30 28.0613 30 25.6355V4.39968C30 1.9739 28.0284 0 25.6055 0ZM10.6055 23.8169H7.08984V11.4978H10.6055V23.8169ZM10.6055 9.73796H7.08984V6.21822H10.6055V9.73796ZM22.9102 23.8169H19.3945V16.7775C19.3945 15.8072 18.6058 15.0176 17.6367 15.0176C16.6676 15.0176 15.8789 15.8072 15.8789 16.7775V23.8169H12.3633V11.4978H15.8789V12.1612C16.7999 11.8746 17.3982 11.4978 18.5156 11.4978C20.8999 11.5004 22.9102 13.6418 22.9102 16.1725V23.8169Z" fill="#FF99CC"/>
</svg>
