<svg width="30" height="26" viewBox="0 0 30 26" fill="none" xmlns="http://www.w3.org/2000/svg">
<path d="M30 3.7048C28.8844 4.19475 27.6956 4.51951 26.4562 4.67719C27.7312 3.91505 28.7044 2.7174 29.1619 1.27383C27.9731 1.98341 26.6606 2.48462 25.2619 2.76433C24.1331 1.56104 22.5244 0.815796 20.7694 0.815796C17.3644 0.815796 14.6231 3.58278 14.6231 6.97488C14.6231 7.46295 14.6644 7.93225 14.7656 8.37902C9.6525 8.12936 5.12813 5.67586 2.08875 1.93836C1.55812 2.86006 1.24688 3.91505 1.24688 5.05075C1.24688 7.18325 2.34375 9.07359 3.97875 10.168C2.99062 10.1492 2.02125 9.86201 1.2 9.40961C1.2 9.42838 1.2 9.45278 1.2 9.47718C1.2 12.4694 3.33187 14.9548 6.1275 15.5274C5.62687 15.6644 5.08125 15.7301 4.515 15.7301C4.12125 15.7301 3.72375 15.7076 3.35062 15.625C4.1475 18.0635 6.40875 19.8562 9.0975 19.9144C7.005 21.5532 4.34812 22.5406 1.47188 22.5406C0.9675 22.5406 0.48375 22.5181 0 22.4561C2.72438 24.2151 5.95312 25.2194 9.435 25.2194C20.7525 25.2194 26.94 15.8334 26.94 7.6976C26.94 7.42541 26.9306 7.1626 26.9175 6.90167C28.1381 6.0344 29.1637 4.95126 30 3.7048Z" fill="#FF99CC"/>
</svg>
